<svg xmlns="http://www.w3.org/2000/svg" viewBox="0 0 220 200" role="img" aria-label="Elan Construction mark">
  <defs>
    <linearGradient id="g" x1="0" y1="0" x2="0" y2="1">
      <stop offset="0%" stop-color="#f6e7a8"/>
      <stop offset="55%" stop-color="#d4a82e"/>
      <stop offset="100%" stop-color="#9c6f16"/>
    </linearGradient>
  </defs>
  <rect x="78" y="20" width="46" height="160" rx="3" fill="url(#g)"/>
  <rect x="40" y="78" width="46" height="102" rx="3" fill="url(#g)"/>
  <g fill="#fdfaf0">
    <rect x="48" y="90" width="13" height="15" rx="2"/><rect x="65" y="90" width="13" height="15" rx="2"/>
    <rect x="48" y="112" width="13" height="15" rx="2"/><rect x="65" y="112" width="13" height="15" rx="2"/>
  </g>
  <polygon points="120,72 158,38 196,72" fill="url(#g)"/>
  <rect x="126" y="72" width="64" height="108" rx="3" fill="url(#g)"/>
  <g fill="#fdfaf0">
    <rect x="135" y="86" width="18" height="20" rx="2"/><rect x="161" y="86" width="18" height="20" rx="2"/>
    <rect x="148" y="130" width="20" height="50" rx="3"/>
  </g>
</svg>
